<mxfile host="app.diagrams.net" agent="Mozilla/5.0 (Windows NT 10.0; Win64; x64) AppleWebKit/537.36 (KHTML, like Gecko) Chrome/141.0.0.0 Safari/537.36" version="26.2.15">
  <diagram name="Page-1" id="NKuZhpN1fuZLwY10YlS4">
    <mxGraphModel dx="2808" dy="756" grid="0" gridSize="10" guides="1" tooltips="1" connect="1" arrows="1" fold="1" page="1" pageScale="1" pageWidth="1100" pageHeight="850" background="#ffffff" math="0" shadow="0">
      <root>
        <mxCell id="0" />
        <mxCell id="1" parent="0" />
        <mxCell id="vNQpsKHxJKlVDmQyq7Vh-1" value="START" style="ellipse;whiteSpace=wrap;html=1;rotation=0;" vertex="1" parent="1">
          <mxGeometry x="-1088" y="8" width="112" height="48" as="geometry" />
        </mxCell>
        <mxCell id="vNQpsKHxJKlVDmQyq7Vh-2" value="" style="endArrow=classic;html=1;rounded=0;exitX=0.5;exitY=1;exitDx=0;exitDy=0;entryX=0.5;entryY=0;entryDx=0;entryDy=0;" edge="1" parent="1" source="vNQpsKHxJKlVDmQyq7Vh-1" target="vNQpsKHxJKlVDmQyq7Vh-3">
          <mxGeometry width="50" height="50" relative="1" as="geometry">
            <mxPoint x="-1002" y="132" as="sourcePoint" />
            <mxPoint x="-952" y="82" as="targetPoint" />
          </mxGeometry>
        </mxCell>
        <mxCell id="vNQpsKHxJKlVDmQyq7Vh-3" value="Registered&amp;nbsp;&lt;div&gt;User?&lt;/div&gt;" style="rhombus;whiteSpace=wrap;html=1;" vertex="1" parent="1">
          <mxGeometry x="-1080.5" y="96" width="97" height="120" as="geometry" />
        </mxCell>
        <mxCell id="vNQpsKHxJKlVDmQyq7Vh-11" value="" style="endArrow=classic;html=1;rounded=0;exitX=1;exitY=0.5;exitDx=0;exitDy=0;" edge="1" parent="1" source="vNQpsKHxJKlVDmQyq7Vh-3" target="vNQpsKHxJKlVDmQyq7Vh-12">
          <mxGeometry width="50" height="50" relative="1" as="geometry">
            <mxPoint x="-919" y="211" as="sourcePoint" />
            <mxPoint x="-926" y="156" as="targetPoint" />
          </mxGeometry>
        </mxCell>
        <mxCell id="vNQpsKHxJKlVDmQyq7Vh-13" value="NO" style="edgeLabel;html=1;align=center;verticalAlign=middle;resizable=0;points=[];" vertex="1" connectable="0" parent="vNQpsKHxJKlVDmQyq7Vh-11">
          <mxGeometry x="0.0319" y="-2" relative="1" as="geometry">
            <mxPoint as="offset" />
          </mxGeometry>
        </mxCell>
        <mxCell id="vNQpsKHxJKlVDmQyq7Vh-12" value="Register as&amp;nbsp;&lt;div&gt;New User&lt;/div&gt;" style="rounded=0;whiteSpace=wrap;html=1;" vertex="1" parent="1">
          <mxGeometry x="-925" y="124" width="90" height="64" as="geometry" />
        </mxCell>
        <mxCell id="vNQpsKHxJKlVDmQyq7Vh-15" value="Login&lt;span style=&quot;background-color: transparent; color: light-dark(rgb(0, 0, 0), rgb(255, 255, 255));&quot;&gt;&amp;nbsp;&lt;/span&gt;" style="rhombus;whiteSpace=wrap;html=1;" vertex="1" parent="1">
          <mxGeometry x="-1080.5" y="264" width="97" height="120" as="geometry" />
        </mxCell>
        <mxCell id="vNQpsKHxJKlVDmQyq7Vh-16" value="" style="endArrow=classic;html=1;rounded=0;exitX=0.5;exitY=1;exitDx=0;exitDy=0;entryX=0.5;entryY=0;entryDx=0;entryDy=0;" edge="1" parent="1" source="vNQpsKHxJKlVDmQyq7Vh-3" target="vNQpsKHxJKlVDmQyq7Vh-15">
          <mxGeometry width="50" height="50" relative="1" as="geometry">
            <mxPoint x="-1012.9950000000001" y="221.99999999999997" as="sourcePoint" />
            <mxPoint x="-685.54" y="307.96" as="targetPoint" />
          </mxGeometry>
        </mxCell>
        <mxCell id="vNQpsKHxJKlVDmQyq7Vh-17" value="YES" style="edgeLabel;html=1;align=center;verticalAlign=middle;resizable=0;points=[];" vertex="1" connectable="0" parent="vNQpsKHxJKlVDmQyq7Vh-16">
          <mxGeometry x="-0.3006" y="-1" relative="1" as="geometry">
            <mxPoint as="offset" />
          </mxGeometry>
        </mxCell>
        <mxCell id="vNQpsKHxJKlVDmQyq7Vh-18" value="" style="endArrow=none;html=1;rounded=0;" edge="1" parent="1">
          <mxGeometry width="50" height="50" relative="1" as="geometry">
            <mxPoint x="-1031" y="247" as="sourcePoint" />
            <mxPoint x="-1006" y="247" as="targetPoint" />
          </mxGeometry>
        </mxCell>
        <mxCell id="vNQpsKHxJKlVDmQyq7Vh-20" value="A" style="ellipse;whiteSpace=wrap;html=1;aspect=fixed;" vertex="1" parent="1">
          <mxGeometry x="-1006" y="239" width="15" height="15" as="geometry" />
        </mxCell>
        <mxCell id="vNQpsKHxJKlVDmQyq7Vh-22" value="" style="endArrow=none;html=1;rounded=0;exitX=0.5;exitY=1;exitDx=0;exitDy=0;" edge="1" parent="1" source="vNQpsKHxJKlVDmQyq7Vh-12">
          <mxGeometry width="50" height="50" relative="1" as="geometry">
            <mxPoint x="-756" y="348" as="sourcePoint" />
            <mxPoint x="-880" y="325" as="targetPoint" />
          </mxGeometry>
        </mxCell>
        <mxCell id="vNQpsKHxJKlVDmQyq7Vh-23" value="" style="endArrow=classic;html=1;rounded=0;entryX=1;entryY=0.5;entryDx=0;entryDy=0;" edge="1" parent="1" target="vNQpsKHxJKlVDmQyq7Vh-15">
          <mxGeometry width="50" height="50" relative="1" as="geometry">
            <mxPoint x="-880" y="324" as="sourcePoint" />
            <mxPoint x="-706" y="298" as="targetPoint" />
          </mxGeometry>
        </mxCell>
        <mxCell id="vNQpsKHxJKlVDmQyq7Vh-24" value="" style="endArrow=classic;html=1;rounded=0;exitX=0.5;exitY=1;exitDx=0;exitDy=0;entryX=0.5;entryY=0;entryDx=0;entryDy=0;" edge="1" parent="1" source="vNQpsKHxJKlVDmQyq7Vh-15" target="vNQpsKHxJKlVDmQyq7Vh-25">
          <mxGeometry width="50" height="50" relative="1" as="geometry">
            <mxPoint x="-956" y="421" as="sourcePoint" />
            <mxPoint x="-906" y="371" as="targetPoint" />
          </mxGeometry>
        </mxCell>
        <mxCell id="vNQpsKHxJKlVDmQyq7Vh-25" value="Send OTP verification via SMS" style="rounded=0;whiteSpace=wrap;html=1;" vertex="1" parent="1">
          <mxGeometry x="-1077" y="418" width="90" height="64" as="geometry" />
        </mxCell>
        <mxCell id="vNQpsKHxJKlVDmQyq7Vh-26" value="OTP Verified?" style="html=1;whiteSpace=wrap;aspect=fixed;shape=isoRectangle;" vertex="1" parent="1">
          <mxGeometry x="-944" y="405" width="150" height="90" as="geometry" />
        </mxCell>
        <mxCell id="vNQpsKHxJKlVDmQyq7Vh-29" value="Home Page" style="rounded=0;whiteSpace=wrap;html=1;" vertex="1" parent="1">
          <mxGeometry x="-1077" y="551" width="120" height="60" as="geometry" />
        </mxCell>
        <mxCell id="vNQpsKHxJKlVDmQyq7Vh-30" value="" style="endArrow=classic;html=1;rounded=0;exitX=1;exitY=0.5;exitDx=0;exitDy=0;entryX=0.009;entryY=0.509;entryDx=0;entryDy=0;entryPerimeter=0;" edge="1" parent="1" source="vNQpsKHxJKlVDmQyq7Vh-25" target="vNQpsKHxJKlVDmQyq7Vh-26">
          <mxGeometry width="50" height="50" relative="1" as="geometry">
            <mxPoint x="-757" y="555" as="sourcePoint" />
            <mxPoint x="-707" y="505" as="targetPoint" />
          </mxGeometry>
        </mxCell>
        <mxCell id="vNQpsKHxJKlVDmQyq7Vh-33" value="" style="endArrow=classic;html=1;rounded=0;exitX=0.507;exitY=0.996;exitDx=0;exitDy=0;exitPerimeter=0;entryX=1;entryY=0.5;entryDx=0;entryDy=0;" edge="1" parent="1" source="vNQpsKHxJKlVDmQyq7Vh-26" target="vNQpsKHxJKlVDmQyq7Vh-29">
          <mxGeometry width="50" height="50" relative="1" as="geometry">
            <mxPoint x="-860" y="622" as="sourcePoint" />
            <mxPoint x="-810" y="572" as="targetPoint" />
            <Array as="points">
              <mxPoint x="-868" y="581" />
            </Array>
          </mxGeometry>
        </mxCell>
        <mxCell id="vNQpsKHxJKlVDmQyq7Vh-34" value="YES" style="edgeLabel;html=1;align=center;verticalAlign=middle;resizable=0;points=[];" vertex="1" connectable="0" parent="vNQpsKHxJKlVDmQyq7Vh-33">
          <mxGeometry x="0.5912" y="1" relative="1" as="geometry">
            <mxPoint as="offset" />
          </mxGeometry>
        </mxCell>
        <mxCell id="vNQpsKHxJKlVDmQyq7Vh-35" value="" style="endArrow=classic;html=1;rounded=0;" edge="1" parent="1" source="vNQpsKHxJKlVDmQyq7Vh-26" target="vNQpsKHxJKlVDmQyq7Vh-36">
          <mxGeometry width="50" height="50" relative="1" as="geometry">
            <mxPoint x="-860" y="418" as="sourcePoint" />
            <mxPoint x="-869" y="374" as="targetPoint" />
          </mxGeometry>
        </mxCell>
        <mxCell id="vNQpsKHxJKlVDmQyq7Vh-37" value="NO" style="edgeLabel;html=1;align=center;verticalAlign=middle;resizable=0;points=[];" vertex="1" connectable="0" parent="vNQpsKHxJKlVDmQyq7Vh-35">
          <mxGeometry x="-0.0738" y="-1" relative="1" as="geometry">
            <mxPoint as="offset" />
          </mxGeometry>
        </mxCell>
        <mxCell id="vNQpsKHxJKlVDmQyq7Vh-36" value="A" style="ellipse;whiteSpace=wrap;html=1;aspect=fixed;" vertex="1" parent="1">
          <mxGeometry x="-876.5" y="355" width="15" height="15" as="geometry" />
        </mxCell>
        <mxCell id="vNQpsKHxJKlVDmQyq7Vh-38" value="B" style="ellipse;whiteSpace=wrap;html=1;aspect=fixed;" vertex="1" parent="1">
          <mxGeometry x="-901" y="541" width="15" height="15" as="geometry" />
        </mxCell>
        <mxCell id="vNQpsKHxJKlVDmQyq7Vh-39" value="" style="endArrow=none;html=1;rounded=0;" edge="1" parent="1" target="vNQpsKHxJKlVDmQyq7Vh-38">
          <mxGeometry width="50" height="50" relative="1" as="geometry">
            <mxPoint x="-893" y="581" as="sourcePoint" />
            <mxPoint x="-864" y="538" as="targetPoint" />
          </mxGeometry>
        </mxCell>
        <mxCell id="vNQpsKHxJKlVDmQyq7Vh-41" value="" style="endArrow=none;html=1;rounded=0;" edge="1" parent="1" target="vNQpsKHxJKlVDmQyq7Vh-46">
          <mxGeometry width="50" height="50" relative="1" as="geometry">
            <mxPoint x="-1016" y="661" as="sourcePoint" />
            <mxPoint x="-981.5" y="661" as="targetPoint" />
          </mxGeometry>
        </mxCell>
        <mxCell id="vNQpsKHxJKlVDmQyq7Vh-46" value="Apply for Loan" style="shape=parallelogram;perimeter=parallelogramPerimeter;whiteSpace=wrap;html=1;fixedSize=1;" vertex="1" parent="1">
          <mxGeometry x="-991" y="631" width="120" height="60" as="geometry" />
        </mxCell>
        <mxCell id="vNQpsKHxJKlVDmQyq7Vh-47" value="" style="endArrow=none;html=1;rounded=0;" edge="1" target="vNQpsKHxJKlVDmQyq7Vh-48" parent="1">
          <mxGeometry width="50" height="50" relative="1" as="geometry">
            <mxPoint x="-1017" y="735" as="sourcePoint" />
            <mxPoint x="-981.5" y="735" as="targetPoint" />
          </mxGeometry>
        </mxCell>
        <mxCell id="vNQpsKHxJKlVDmQyq7Vh-48" value="View Loan&amp;nbsp;&lt;div&gt;History&lt;/div&gt;" style="shape=parallelogram;perimeter=parallelogramPerimeter;whiteSpace=wrap;html=1;fixedSize=1;" vertex="1" parent="1">
          <mxGeometry x="-991" y="705" width="120" height="60" as="geometry" />
        </mxCell>
        <mxCell id="vNQpsKHxJKlVDmQyq7Vh-50" value="Verify Account" style="shape=parallelogram;perimeter=parallelogramPerimeter;whiteSpace=wrap;html=1;fixedSize=1;" vertex="1" parent="1">
          <mxGeometry x="-991" y="781" width="120" height="60" as="geometry" />
        </mxCell>
        <mxCell id="vNQpsKHxJKlVDmQyq7Vh-52" value="" style="endArrow=none;html=1;rounded=0;" edge="1" parent="1" target="vNQpsKHxJKlVDmQyq7Vh-29">
          <mxGeometry width="50" height="50" relative="1" as="geometry">
            <mxPoint x="-1016" y="810" as="sourcePoint" />
            <mxPoint x="-852" y="699" as="targetPoint" />
          </mxGeometry>
        </mxCell>
        <mxCell id="vNQpsKHxJKlVDmQyq7Vh-53" value="" style="endArrow=none;html=1;rounded=0;" edge="1" parent="1" target="vNQpsKHxJKlVDmQyq7Vh-50">
          <mxGeometry width="50" height="50" relative="1" as="geometry">
            <mxPoint x="-1016" y="810" as="sourcePoint" />
            <mxPoint x="-941" y="766" as="targetPoint" />
          </mxGeometry>
        </mxCell>
        <mxCell id="vNQpsKHxJKlVDmQyq7Vh-54" value="Fetch from database&lt;div&gt;accordingly&lt;/div&gt;" style="rounded=0;whiteSpace=wrap;html=1;" vertex="1" parent="1">
          <mxGeometry x="-804" y="705" width="120" height="60" as="geometry" />
        </mxCell>
        <mxCell id="vNQpsKHxJKlVDmQyq7Vh-55" value="" style="endArrow=classic;html=1;rounded=0;" edge="1" parent="1" source="vNQpsKHxJKlVDmQyq7Vh-48" target="vNQpsKHxJKlVDmQyq7Vh-54">
          <mxGeometry width="50" height="50" relative="1" as="geometry">
            <mxPoint x="-702" y="742" as="sourcePoint" />
            <mxPoint x="-652" y="692" as="targetPoint" />
          </mxGeometry>
        </mxCell>
        <mxCell id="vNQpsKHxJKlVDmQyq7Vh-56" value="Display Loan&amp;nbsp;&lt;div&gt;History&lt;/div&gt;" style="shape=parallelogram;perimeter=parallelogramPerimeter;whiteSpace=wrap;html=1;fixedSize=1;" vertex="1" parent="1">
          <mxGeometry x="-632" y="705" width="120" height="60" as="geometry" />
        </mxCell>
        <mxCell id="vNQpsKHxJKlVDmQyq7Vh-57" value="" style="endArrow=classic;html=1;rounded=0;" edge="1" parent="1" source="vNQpsKHxJKlVDmQyq7Vh-54" target="vNQpsKHxJKlVDmQyq7Vh-56">
          <mxGeometry width="50" height="50" relative="1" as="geometry">
            <mxPoint x="-656" y="742" as="sourcePoint" />
            <mxPoint x="-606" y="692" as="targetPoint" />
          </mxGeometry>
        </mxCell>
        <mxCell id="vNQpsKHxJKlVDmQyq7Vh-58" value="&lt;font style=&quot;font-size: 11px;&quot;&gt;Open Application&lt;/font&gt;&lt;div&gt;&lt;font style=&quot;font-size: 11px;&quot;&gt;Modal&lt;/font&gt;&lt;/div&gt;" style="shape=parallelogram;perimeter=parallelogramPerimeter;whiteSpace=wrap;html=1;fixedSize=1;" vertex="1" parent="1">
          <mxGeometry x="-709" y="631" width="120" height="60" as="geometry" />
        </mxCell>
        <mxCell id="vNQpsKHxJKlVDmQyq7Vh-59" value="" style="endArrow=classic;html=1;rounded=0;" edge="1" parent="1" source="vNQpsKHxJKlVDmQyq7Vh-46" target="vNQpsKHxJKlVDmQyq7Vh-58">
          <mxGeometry width="50" height="50" relative="1" as="geometry">
            <mxPoint x="-656" y="742" as="sourcePoint" />
            <mxPoint x="-606" y="692" as="targetPoint" />
          </mxGeometry>
        </mxCell>
        <mxCell id="vNQpsKHxJKlVDmQyq7Vh-60" value="&lt;span style=&quot;font-size: 11px;&quot;&gt;Select Loan&lt;/span&gt;&lt;div&gt;&lt;span style=&quot;font-size: 11px;&quot;&gt;Plan&lt;/span&gt;&lt;/div&gt;" style="shape=parallelogram;perimeter=parallelogramPerimeter;whiteSpace=wrap;html=1;fixedSize=1;" vertex="1" parent="1">
          <mxGeometry x="-427" y="631" width="120" height="60" as="geometry" />
        </mxCell>
        <mxCell id="vNQpsKHxJKlVDmQyq7Vh-61" value="" style="endArrow=classic;html=1;rounded=0;" edge="1" parent="1" source="vNQpsKHxJKlVDmQyq7Vh-58" target="vNQpsKHxJKlVDmQyq7Vh-60">
          <mxGeometry width="50" height="50" relative="1" as="geometry">
            <mxPoint x="-593" y="704" as="sourcePoint" />
            <mxPoint x="-543" y="654" as="targetPoint" />
          </mxGeometry>
        </mxCell>
        <mxCell id="vNQpsKHxJKlVDmQyq7Vh-63" value="Verified User?" style="html=1;whiteSpace=wrap;aspect=fixed;shape=isoRectangle;" vertex="1" parent="1">
          <mxGeometry x="-442" y="485" width="150" height="90" as="geometry" />
        </mxCell>
        <mxCell id="vNQpsKHxJKlVDmQyq7Vh-64" value="" style="endArrow=classic;html=1;rounded=0;" edge="1" parent="1" source="vNQpsKHxJKlVDmQyq7Vh-60" target="vNQpsKHxJKlVDmQyq7Vh-63">
          <mxGeometry width="50" height="50" relative="1" as="geometry">
            <mxPoint x="-593" y="580" as="sourcePoint" />
            <mxPoint x="-543" y="530" as="targetPoint" />
          </mxGeometry>
        </mxCell>
        <mxCell id="vNQpsKHxJKlVDmQyq7Vh-65" value="D" style="ellipse;whiteSpace=wrap;html=1;aspect=fixed;" vertex="1" parent="1">
          <mxGeometry x="-1024.5" y="820" width="15" height="15" as="geometry" />
        </mxCell>
        <mxCell id="vNQpsKHxJKlVDmQyq7Vh-66" value="" style="endArrow=none;html=1;rounded=0;" edge="1" parent="1" source="vNQpsKHxJKlVDmQyq7Vh-65" target="vNQpsKHxJKlVDmQyq7Vh-50">
          <mxGeometry width="50" height="50" relative="1" as="geometry">
            <mxPoint x="-897" y="819" as="sourcePoint" />
            <mxPoint x="-847" y="769" as="targetPoint" />
          </mxGeometry>
        </mxCell>
        <mxCell id="vNQpsKHxJKlVDmQyq7Vh-67" value="D" style="ellipse;whiteSpace=wrap;html=1;aspect=fixed;" vertex="1" parent="1">
          <mxGeometry x="-508" y="521" width="15" height="15" as="geometry" />
        </mxCell>
        <mxCell id="vNQpsKHxJKlVDmQyq7Vh-68" value="" style="endArrow=classic;html=1;rounded=0;" edge="1" parent="1" source="vNQpsKHxJKlVDmQyq7Vh-63" target="vNQpsKHxJKlVDmQyq7Vh-67">
          <mxGeometry width="50" height="50" relative="1" as="geometry">
            <mxPoint x="-460" y="559" as="sourcePoint" />
            <mxPoint x="-410" y="509" as="targetPoint" />
          </mxGeometry>
        </mxCell>
        <mxCell id="vNQpsKHxJKlVDmQyq7Vh-69" value="NO" style="edgeLabel;html=1;align=center;verticalAlign=middle;resizable=0;points=[];" vertex="1" connectable="0" parent="vNQpsKHxJKlVDmQyq7Vh-68">
          <mxGeometry x="0.02" relative="1" as="geometry">
            <mxPoint as="offset" />
          </mxGeometry>
        </mxCell>
        <mxCell id="vNQpsKHxJKlVDmQyq7Vh-70" value="&lt;span style=&quot;font-size: 11px;&quot;&gt;Submit Loan&lt;/span&gt;&lt;div&gt;&lt;span style=&quot;font-size: 11px;&quot;&gt;Application&lt;/span&gt;&lt;/div&gt;" style="shape=parallelogram;perimeter=parallelogramPerimeter;whiteSpace=wrap;html=1;fixedSize=1;" vertex="1" parent="1">
          <mxGeometry x="-427" y="223" width="120" height="60" as="geometry" />
        </mxCell>
        <mxCell id="vNQpsKHxJKlVDmQyq7Vh-71" value="" style="endArrow=classic;html=1;rounded=0;" edge="1" parent="1" source="vNQpsKHxJKlVDmQyq7Vh-63" target="vNQpsKHxJKlVDmQyq7Vh-92">
          <mxGeometry width="50" height="50" relative="1" as="geometry">
            <mxPoint x="-460" y="487" as="sourcePoint" />
            <mxPoint x="-371" y="421" as="targetPoint" />
          </mxGeometry>
        </mxCell>
        <mxCell id="vNQpsKHxJKlVDmQyq7Vh-72" value="YES" style="edgeLabel;html=1;align=center;verticalAlign=middle;resizable=0;points=[];" vertex="1" connectable="0" parent="vNQpsKHxJKlVDmQyq7Vh-71">
          <mxGeometry x="-0.0626" y="-1" relative="1" as="geometry">
            <mxPoint as="offset" />
          </mxGeometry>
        </mxCell>
        <mxCell id="vNQpsKHxJKlVDmQyq7Vh-73" value="Make Another&lt;div&gt;Loan?&lt;/div&gt;" style="html=1;whiteSpace=wrap;aspect=fixed;shape=isoRectangle;" vertex="1" parent="1">
          <mxGeometry x="-442" y="96" width="150" height="90" as="geometry" />
        </mxCell>
        <mxCell id="vNQpsKHxJKlVDmQyq7Vh-74" value="" style="endArrow=classic;html=1;rounded=0;" edge="1" parent="1" source="vNQpsKHxJKlVDmQyq7Vh-70" target="vNQpsKHxJKlVDmQyq7Vh-73">
          <mxGeometry width="50" height="50" relative="1" as="geometry">
            <mxPoint x="-388" y="238" as="sourcePoint" />
            <mxPoint x="-338" y="188" as="targetPoint" />
          </mxGeometry>
        </mxCell>
        <mxCell id="vNQpsKHxJKlVDmQyq7Vh-75" value="C" style="ellipse;whiteSpace=wrap;html=1;aspect=fixed;" vertex="1" parent="1">
          <mxGeometry x="-408" y="599" width="15" height="15" as="geometry" />
        </mxCell>
        <mxCell id="vNQpsKHxJKlVDmQyq7Vh-76" value="" style="endArrow=none;html=1;rounded=0;" edge="1" parent="1" source="vNQpsKHxJKlVDmQyq7Vh-75" target="vNQpsKHxJKlVDmQyq7Vh-60">
          <mxGeometry width="50" height="50" relative="1" as="geometry">
            <mxPoint x="-340.5" y="664" as="sourcePoint" />
            <mxPoint x="-400.5" y="625" as="targetPoint" />
          </mxGeometry>
        </mxCell>
        <mxCell id="vNQpsKHxJKlVDmQyq7Vh-78" value="" style="endArrow=classic;html=1;rounded=0;" edge="1" parent="1" source="vNQpsKHxJKlVDmQyq7Vh-73" target="vNQpsKHxJKlVDmQyq7Vh-79">
          <mxGeometry width="50" height="50" relative="1" as="geometry">
            <mxPoint x="-460" y="166" as="sourcePoint" />
            <mxPoint x="-410" y="116" as="targetPoint" />
          </mxGeometry>
        </mxCell>
        <mxCell id="vNQpsKHxJKlVDmQyq7Vh-80" value="YES" style="edgeLabel;html=1;align=center;verticalAlign=middle;resizable=0;points=[];" vertex="1" connectable="0" parent="vNQpsKHxJKlVDmQyq7Vh-78">
          <mxGeometry x="0.0776" relative="1" as="geometry">
            <mxPoint as="offset" />
          </mxGeometry>
        </mxCell>
        <mxCell id="vNQpsKHxJKlVDmQyq7Vh-79" value="C" style="ellipse;whiteSpace=wrap;html=1;aspect=fixed;" vertex="1" parent="1">
          <mxGeometry x="-508" y="133.5" width="15" height="15" as="geometry" />
        </mxCell>
        <mxCell id="vNQpsKHxJKlVDmQyq7Vh-81" value="B" style="ellipse;whiteSpace=wrap;html=1;aspect=fixed;" vertex="1" parent="1">
          <mxGeometry x="-374.5" y="26" width="15" height="15" as="geometry" />
        </mxCell>
        <mxCell id="vNQpsKHxJKlVDmQyq7Vh-82" value="" style="endArrow=classic;html=1;rounded=0;" edge="1" parent="1" source="vNQpsKHxJKlVDmQyq7Vh-73" target="vNQpsKHxJKlVDmQyq7Vh-81">
          <mxGeometry width="50" height="50" relative="1" as="geometry">
            <mxPoint x="-605" y="94" as="sourcePoint" />
            <mxPoint x="-555" y="44" as="targetPoint" />
          </mxGeometry>
        </mxCell>
        <mxCell id="vNQpsKHxJKlVDmQyq7Vh-83" value="NO" style="edgeLabel;html=1;align=center;verticalAlign=middle;resizable=0;points=[];" vertex="1" connectable="0" parent="vNQpsKHxJKlVDmQyq7Vh-82">
          <mxGeometry x="-0.1694" relative="1" as="geometry">
            <mxPoint as="offset" />
          </mxGeometry>
        </mxCell>
        <mxCell id="vNQpsKHxJKlVDmQyq7Vh-84" value="&lt;span style=&quot;font-size: 11px;&quot;&gt;Basic Info&amp;nbsp;&lt;/span&gt;&lt;div&gt;&lt;span style=&quot;font-size: 11px;&quot;&gt;(Level 1)&lt;/span&gt;&lt;/div&gt;" style="shape=parallelogram;perimeter=parallelogramPerimeter;whiteSpace=wrap;html=1;fixedSize=1;" vertex="1" parent="1">
          <mxGeometry x="-842" y="781" width="120" height="60" as="geometry" />
        </mxCell>
        <mxCell id="vNQpsKHxJKlVDmQyq7Vh-85" value="" style="endArrow=classic;html=1;rounded=0;" edge="1" parent="1" source="vNQpsKHxJKlVDmQyq7Vh-50" target="vNQpsKHxJKlVDmQyq7Vh-84">
          <mxGeometry width="50" height="50" relative="1" as="geometry">
            <mxPoint x="-726" y="742" as="sourcePoint" />
            <mxPoint x="-676" y="692" as="targetPoint" />
          </mxGeometry>
        </mxCell>
        <mxCell id="vNQpsKHxJKlVDmQyq7Vh-86" value="&lt;span style=&quot;font-size: 11px;&quot;&gt;Submit ID and Selfie&amp;nbsp;&lt;/span&gt;&lt;div&gt;&lt;span style=&quot;font-size: 11px;&quot;&gt;(Level 2)&lt;/span&gt;&lt;/div&gt;" style="shape=parallelogram;perimeter=parallelogramPerimeter;whiteSpace=wrap;html=1;fixedSize=1;" vertex="1" parent="1">
          <mxGeometry x="-693" y="781" width="164" height="60" as="geometry" />
        </mxCell>
        <mxCell id="vNQpsKHxJKlVDmQyq7Vh-87" value="" style="endArrow=classic;html=1;rounded=0;" edge="1" parent="1" source="vNQpsKHxJKlVDmQyq7Vh-84" target="vNQpsKHxJKlVDmQyq7Vh-86">
          <mxGeometry width="50" height="50" relative="1" as="geometry">
            <mxPoint x="-726" y="742" as="sourcePoint" />
            <mxPoint x="-676" y="692" as="targetPoint" />
          </mxGeometry>
        </mxCell>
        <mxCell id="vNQpsKHxJKlVDmQyq7Vh-88" value="Credentials Verification" style="rounded=0;whiteSpace=wrap;html=1;" vertex="1" parent="1">
          <mxGeometry x="-491" y="781" width="120" height="60" as="geometry" />
        </mxCell>
        <mxCell id="vNQpsKHxJKlVDmQyq7Vh-90" value="END" style="ellipse;whiteSpace=wrap;html=1;rotation=0;" vertex="1" parent="1">
          <mxGeometry x="-462" y="722" width="62" height="31" as="geometry" />
        </mxCell>
        <mxCell id="vNQpsKHxJKlVDmQyq7Vh-91" value="" style="endArrow=classic;html=1;rounded=0;" edge="1" parent="1" source="vNQpsKHxJKlVDmQyq7Vh-56" target="vNQpsKHxJKlVDmQyq7Vh-90">
          <mxGeometry width="50" height="50" relative="1" as="geometry">
            <mxPoint x="-315" y="742" as="sourcePoint" />
            <mxPoint x="-265" y="692" as="targetPoint" />
          </mxGeometry>
        </mxCell>
        <mxCell id="vNQpsKHxJKlVDmQyq7Vh-92" value="Account not&amp;nbsp;&lt;div&gt;suspended?&lt;/div&gt;" style="html=1;whiteSpace=wrap;aspect=fixed;shape=isoRectangle;" vertex="1" parent="1">
          <mxGeometry x="-442" y="333" width="150" height="90" as="geometry" />
        </mxCell>
        <mxCell id="vNQpsKHxJKlVDmQyq7Vh-93" value="" style="endArrow=classic;html=1;rounded=0;" edge="1" parent="1" source="vNQpsKHxJKlVDmQyq7Vh-92" target="vNQpsKHxJKlVDmQyq7Vh-70">
          <mxGeometry width="50" height="50" relative="1" as="geometry">
            <mxPoint x="-370" y="353" as="sourcePoint" />
            <mxPoint x="-370" y="291" as="targetPoint" />
          </mxGeometry>
        </mxCell>
        <mxCell id="vNQpsKHxJKlVDmQyq7Vh-94" value="YES" style="edgeLabel;html=1;align=center;verticalAlign=middle;resizable=0;points=[];" vertex="1" connectable="0" parent="vNQpsKHxJKlVDmQyq7Vh-93">
          <mxGeometry x="-0.0626" y="-1" relative="1" as="geometry">
            <mxPoint as="offset" />
          </mxGeometry>
        </mxCell>
        <mxCell id="vNQpsKHxJKlVDmQyq7Vh-95" value="B" style="ellipse;whiteSpace=wrap;html=1;aspect=fixed;" vertex="1" parent="1">
          <mxGeometry x="-250" y="370.5" width="15" height="15" as="geometry" />
        </mxCell>
        <mxCell id="vNQpsKHxJKlVDmQyq7Vh-96" value="" style="endArrow=classic;html=1;rounded=0;" edge="1" parent="1" source="vNQpsKHxJKlVDmQyq7Vh-92" target="vNQpsKHxJKlVDmQyq7Vh-95">
          <mxGeometry width="50" height="50" relative="1" as="geometry">
            <mxPoint x="-286" y="385" as="sourcePoint" />
            <mxPoint x="-236" y="335" as="targetPoint" />
          </mxGeometry>
        </mxCell>
        <mxCell id="vNQpsKHxJKlVDmQyq7Vh-97" value="NO" style="edgeLabel;html=1;align=center;verticalAlign=middle;resizable=0;points=[];" vertex="1" connectable="0" parent="vNQpsKHxJKlVDmQyq7Vh-96">
          <mxGeometry x="-0.2232" y="-2" relative="1" as="geometry">
            <mxPoint as="offset" />
          </mxGeometry>
        </mxCell>
        <mxCell id="vNQpsKHxJKlVDmQyq7Vh-98" value="" style="endArrow=classic;html=1;rounded=0;" edge="1" parent="1" source="vNQpsKHxJKlVDmQyq7Vh-86" target="vNQpsKHxJKlVDmQyq7Vh-88">
          <mxGeometry width="50" height="50" relative="1" as="geometry">
            <mxPoint x="-552" y="743" as="sourcePoint" />
            <mxPoint x="-502" y="693" as="targetPoint" />
          </mxGeometry>
        </mxCell>
        <mxCell id="vNQpsKHxJKlVDmQyq7Vh-99" value="B" style="ellipse;whiteSpace=wrap;html=1;aspect=fixed;" vertex="1" parent="1">
          <mxGeometry x="-306" y="803.5" width="15" height="15" as="geometry" />
        </mxCell>
        <mxCell id="vNQpsKHxJKlVDmQyq7Vh-101" value="" style="endArrow=classic;html=1;rounded=0;" edge="1" parent="1" source="vNQpsKHxJKlVDmQyq7Vh-88" target="vNQpsKHxJKlVDmQyq7Vh-99">
          <mxGeometry width="50" height="50" relative="1" as="geometry">
            <mxPoint x="-483" y="815" as="sourcePoint" />
            <mxPoint x="-433" y="765" as="targetPoint" />
          </mxGeometry>
        </mxCell>
      </root>
    </mxGraphModel>
  </diagram>
</mxfile>
